<?xml version="1.0" standalone="no"?>
<!DOCTYPE svg PUBLIC "-//W3C//DTD SVG 20010904//EN"
 "http://www.w3.org/TR/2001/REC-SVG-20010904/DTD/svg10.dtd">
<svg version="1.0" xmlns="http://www.w3.org/2000/svg"
 width="480.000000pt" height="480.000000pt" viewBox="0 0 480.000000 480.000000"
 preserveAspectRatio="xMidYMid meet">
<metadata>
Created by potrace 1.14, written by Peter Selinger 2001-2017
</metadata>
<g transform="translate(0.000000,480.000000) scale(0.100000,-0.100000)"
fill="#000000" stroke="none">
<path d="M483 4243 c-19 -7 -16 -32 13 -109 39 -102 41 -118 17 -110 -14 5
-33 -9 -79 -62 -75 -83 -94 -119 -101 -188 -5 -48 -3 -59 23 -95 15 -23 43
-52 60 -66 23 -17 34 -35 39 -66 4 -23 10 -193 14 -377 l6 -335 30 0 c27 -1
30 -5 46 -58 22 -73 40 -101 77 -116 23 -10 36 -28 57 -78 16 -36 45 -82 65
-102 77 -74 79 -114 13 -201 -27 -35 -61 -80 -76 -100 l-28 -36 12 -93 12 -92
73 -67 c40 -36 71 -68 69 -71 -3 -2 -13 3 -23 12 -18 16 -19 16 -17 -13 1 -16
10 -40 21 -51 19 -22 19 -22 -3 -10 -12 6 -28 11 -35 11 -7 -1 -1 -8 15 -16
28 -15 38 -30 14 -21 -8 3 -20 1 -27 -3 -11 -7 -11 -11 -1 -24 7 -8 10 -20 6
-26 -3 -5 -3 -10 2 -10 4 0 24 -14 43 -30 28 -24 31 -28 13 -23 -14 3 -23 1
-23 -6 0 -6 13 -11 29 -11 32 0 55 -20 24 -20 -13 -1 -11 -5 10 -16 16 -9 37
-17 47 -19 28 -5 60 -24 60 -35 0 -5 -17 -18 -38 -29 -21 -11 -45 -27 -53 -37
-13 -16 -12 -16 18 -1 36 19 98 22 109 6 4 -8 0 -9 -15 -4 -16 5 -20 3 -15
-10 9 -21 -22 -43 -52 -37 -35 6 -29 -15 6 -23 42 -9 37 -25 -7 -26 -21 -1
-30 -3 -20 -6 23 -6 12 -23 -16 -24 -20 -1 -20 -2 3 -8 14 -5 48 -6 75 -3 52
4 135 -12 135 -28 0 -5 -10 -12 -21 -15 -17 -6 -19 -9 -8 -16 8 -5 10 -9 5 -9
-5 0 -3 -6 3 -13 6 -8 8 -17 4 -20 -3 -4 15 -6 40 -5 57 3 67 -6 36 -32 l-24
-20 28 10 c36 13 92 13 136 0 26 -7 42 -6 67 6 20 10 44 14 59 10 25 -6 97 25
170 73 l30 20 -1 -109 -1 -109 -78 -41 c-191 -100 -376 -261 -455 -395 -40
-67 -79 -176 -80 -219 0 -42 -9 -27 -26 44 -67 286 -377 547 -828 695 -75 25
-143 45 -151 45 -13 0 -15 -73 -15 -590 l0 -590 2400 0 2400 0 0 436 0 435
-29 -21 c-63 -44 -180 -183 -219 -259 -43 -82 -72 -166 -73 -215 0 -19 -6 -5
-16 39 -19 90 -67 193 -131 278 -37 49 -60 95 -82 163 -21 62 -42 106 -61 125
-34 34 -52 89 -47 143 3 42 28 64 28 26 l0 -22 20 23 c20 24 20 24 35 5 9 -13
15 -15 15 -6 0 14 52 100 60 100 3 0 4 -19 3 -42 -3 -36 -1 -39 7 -20 5 13 14
20 20 17 6 -4 10 13 10 44 0 40 4 52 20 61 12 6 20 7 20 1 0 -5 -5 -11 -11
-13 -7 -2 -8 -17 -3 -43 l7 -40 12 35 13 35 5 -30 c2 -16 2 -4 0 28 -2 32 -7
65 -10 73 -3 9 1 14 11 14 15 0 15 2 1 31 -24 45 -14 55 25 23 l34 -29 -19 27
c-11 15 -24 28 -28 28 -5 0 -5 5 -1 11 4 8 13 4 25 -12 l19 -24 0 23 c0 24 26
28 43 7 5 -5 6 4 2 20 -4 17 -13 34 -21 38 -8 4 -14 13 -14 18 0 6 5 7 10 4
15 -10 12 3 -16 62 -14 30 -23 57 -20 61 4 3 21 -8 39 -24 29 -26 30 -27 8 -2
-13 14 -21 31 -18 35 3 5 -3 17 -13 26 -23 19 -17 43 11 50 21 6 16 37 -6 37
-7 0 -12 10 -11 24 1 24 1 24 19 5 24 -26 31 -24 15 4 -7 12 -12 24 -11 27 1
3 -18 16 -43 29 -24 13 -44 28 -44 33 0 14 27 38 42 38 7 0 -1 9 -18 19 -35
21 -55 44 -30 35 21 -8 20 5 -1 28 -15 17 -15 21 -3 29 10 6 11 12 5 17 -5 4
-11 18 -13 32 -1 13 -7 27 -13 31 -6 3 -11 10 -12 15 -1 5 -6 8 -10 6 -5 -1
-6 2 -2 7 3 6 13 7 23 4 15 -6 15 -4 -2 15 -11 12 -14 22 -8 22 7 0 12 7 12
15 0 8 -8 15 -18 15 -22 0 -112 56 -112 70 0 5 14 7 32 5 l33 -5 -30 11 c-16
7 -42 20 -57 30 -14 11 -32 19 -38 19 -16 0 -82 41 -76 47 2 3 14 -1 26 -7 12
-6 24 -9 27 -6 3 3 -10 12 -28 20 -26 11 -29 15 -14 16 17 2 16 3 -5 10 -14 4
-53 5 -87 2 -41 -3 -68 -1 -77 7 -20 16 -113 -14 -130 -43 -7 -11 -46 -72 -86
-134 -64 -100 -75 -112 -101 -112 -25 0 -29 4 -34 38 -3 20 -8 50 -10 65 -11
69 -41 113 -99 145 l-56 32 6 43 c3 23 14 54 25 69 16 23 16 27 2 32 -9 4 -13
14 -10 25 3 15 1 18 -11 14 -12 -5 -14 -2 -8 13 18 43 18 54 2 54 -9 0 -16 6
-16 13 0 8 -11 20 -25 27 -14 7 -25 17 -25 22 0 4 -20 8 -45 8 -32 0 -52 6
-67 20 -12 10 -25 17 -30 14 -4 -3 -8 0 -8 6 0 8 13 10 43 5 27 -5 39 -4 32 3
-19 18 -62 23 -75 7 -20 -24 -46 -1 -59 50 -10 42 -9 50 9 81 26 42 60 45 153
12 83 -29 214 -28 263 3 50 30 74 77 74 142 0 50 -4 61 -45 115 -25 33 -48 75
-52 93 -3 19 -14 50 -25 69 -10 19 -18 49 -18 66 0 58 39 158 101 262 34 57
58 106 55 109 -4 4 -55 -42 -115 -102 -73 -75 -116 -128 -135 -166 -34 -72
-63 -231 -47 -265 20 -44 15 -51 -31 -45 -40 6 -43 8 -40 33 4 32 -13 59 -112
177 -81 97 -197 188 -304 239 -69 33 -77 34 -150 29 -47 -3 -106 -16 -152 -33
-65 -24 -85 -38 -151 -104 -57 -57 -82 -90 -97 -131 -17 -47 -23 -54 -44 -51
-33 4 -73 -42 -98 -112 l-19 -58 25 -49 c13 -28 31 -52 39 -56 12 -4 15 -25
15 -95 0 -81 2 -90 20 -95 16 -4 19 -11 13 -32 -7 -33 -6 -32 -34 -35 -40 -4
-84 -19 -92 -30 -6 -7 -7 -4 -3 7 4 13 -1 17 -23 17 -35 0 -61 -9 -61 -21 0
-5 8 -9 17 -9 9 0 14 -3 10 -6 -5 -6 -47 -12 -90 -13 -11 -1 -15 -5 -11 -13 5
-8 2 -9 -9 -5 -9 3 -19 2 -22 -2 -3 -5 2 -12 11 -15 22 -8 6 -28 -17 -21 -13
4 -19 2 -19 -8 0 -9 -6 -18 -12 -20 -10 -4 -10 -6 0 -6 6 -1 12 -6 12 -12 0
-6 -7 -9 -15 -5 -10 3 -15 -1 -15 -12 0 -9 -9 -31 -19 -49 -17 -26 -18 -37 -9
-66 6 -19 8 -44 4 -54 -7 -17 -8 -17 -20 -1 -11 15 -14 15 -30 -7 l-18 -25
-27 21 c-14 11 -32 30 -39 42 -13 22 -13 22 -6 -2 5 -19 3 -23 -10 -18 -8 3
-18 2 -21 -3 -7 -12 -113 40 -136 66 -9 11 -19 26 -22 34 -3 10 -6 6 -6 -9 -1
-17 -5 -22 -17 -17 -9 3 -28 9 -42 13 -14 3 -65 45 -112 92 -47 47 -104 98
-128 114 l-43 27 26 44 c14 23 25 49 25 57 0 41 -28 100 -87 187 -91 133 -198
312 -212 353 -6 19 -16 60 -21 91 -6 31 -20 68 -31 83 -12 14 -25 40 -30 59
-5 18 -20 49 -34 67 -14 19 -33 47 -42 64 -20 34 -77 91 -116 117 -14 10 -34
39 -44 65 -27 70 -74 153 -105 185 -27 28 -33 31 -55 21z m1417 -1638 c0 -8
-2 -15 -4 -15 -2 0 -6 7 -10 15 -3 8 -1 15 4 15 6 0 10 -7 10 -15z m2305 -277
c7 -7 1 -8 -20 -4 -16 4 -34 12 -40 18 -7 7 -1 8 20 4 17 -4 35 -12 40 -18z
m166 -368 c10 -6 19 -15 19 -20 0 -18 -47 -10 -65 10 -18 19 -17 20 4 20 12 0
31 -5 42 -10z m-3561 -260 c0 -5 -2 -10 -4 -10 -3 0 -8 5 -11 10 -3 6 -1 10 4
10 6 0 11 -4 11 -10z"/>
<path d="M4450 1715 c0 -2 9 -9 20 -15 16 -9 18 -8 14 5 -5 13 -34 22 -34 10z"/>
</g>
</svg>
