<?xml version="1.0" encoding="utf-8"?>
<!-- Generator: Adobe Illustrator 24.2.3, SVG Export Plug-In . SVG Version: 6.00 Build 0)  -->
<svg version="1.1" id="Layer_1" xmlns="http://www.w3.org/2000/svg" xmlns:xlink="http://www.w3.org/1999/xlink" x="0px" y="0px"
	 viewBox="0 0 120 120" style="enable-background:new 0 0 120 120;" xml:space="preserve">
<style type="text/css">
	.st0{fill:#107C10;}
	.st1{clip-path:url(#SVGID_2_);}
	.st2{clip-path:url(#SVGID_4_);fill:#FFFFFF;}
</style>
<rect class="st0" width="120" height="120"/>
<g id="Xbox_2020_Sphere_1_">
	<g>
		<defs>
			<rect id="SVGID_1_" x="20" y="20" width="80" height="80"/>
		</defs>
		<clipPath id="SVGID_2_">
			<use xlink:href="#SVGID_1_"  style="overflow:visible;"/>
		</clipPath>
		<g class="st1">
			<defs>
				<rect id="SVGID_3_" x="20" y="20" width="80" height="80"/>
			</defs>
			<clipPath id="SVGID_4_">
				<use xlink:href="#SVGID_3_"  style="overflow:visible;"/>
			</clipPath>
			<path class="st2" d="M60,52.08c0.04,0,0.1,0.04,0.13,0.07c11.96,9.1,32.45,31.61,26.2,37.96C79.29,96.27,70.08,100,60,100
				c-10.08,0-19.29-3.73-26.33-9.89c-6.25-6.36,14.24-28.87,26.2-37.96C59.9,52.12,59.95,52.08,60,52.08"/>
			<path class="st2" d="M80.84,25.85C74.71,22.21,68.07,20,60,20c-8.07,0-14.71,2.21-20.84,5.85c-0.07,0.04-0.1,0.12-0.07,0.2
				c0.03,0.07,0.11,0.09,0.19,0.07c7.75-1.67,19.51,5.02,20.63,5.69c0.03,0.01,0.05,0.03,0.08,0.03c0.03,0,0.06-0.02,0.08-0.03
				c1.12-0.67,12.88-7.36,20.63-5.69c0.08,0.02,0.16,0,0.19-0.07C80.94,25.98,80.91,25.89,80.84,25.85"/>
			<path class="st2" d="M32,31.48c-0.07,0.03-0.12,0.08-0.18,0.14C24.52,38.86,20,48.9,20,60c0,9.11,3.05,17.51,8.18,24.23
				c0.05,0.06,0.14,0.11,0.21,0.06c0.07-0.04,0.07-0.13,0.05-0.21c-3.05-9.43,12.54-32.28,20.59-41.87
				c0.03-0.03,0.05-0.07,0.05-0.12c0-0.06-0.03-0.1-0.07-0.13C36.82,29.84,32.67,31.13,32,31.48"/>
			<path class="st2" d="M70.98,41.98c-0.04,0.03-0.07,0.08-0.07,0.13c0,0.05,0.03,0.08,0.05,0.12c8.05,9.58,23.64,32.44,20.59,41.87
				c-0.03,0.08-0.02,0.17,0.05,0.21c0.07,0.04,0.16,0,0.21-0.06C96.95,77.51,100,69.11,100,60c0-11.1-4.52-21.14-11.82-28.39
				c-0.05-0.05-0.11-0.1-0.18-0.14C87.33,31.13,83.18,29.84,70.98,41.98"/>
		</g>
	</g>
</g>
</svg>
